<svg version="1.1" xmlns="http://www.w3.org/2000/svg" xmlns:xlink="http://www.w3.org/1999/xlink" width="100%" height="100%" viewBox="0 0 800 400" preserveAspectRatio="xMinYMin"><g transform="translate(40,20)"><defs><marker id="arrowhead" refX="2" refY="7" markerWidth="14" markerHeight="14" orient="left"><path d="M 1 1 9 5 1 9 Z"></path></marker></defs><g class="x axis" transform="translate(0,320)" fill="none" font-size="10" font-family="sans-serif" text-anchor="middle"><path class="domain" stroke="currentColor" d="M20.5,6V0.5H720.5V6"></path><g class="tick" opacity="1" transform="translate(26.53448275862069,0)"><line stroke="currentColor" y2="6"></line><text fill="currentColor" y="9" dy="2em" style="text-anchor: middle;">1910</text></g><g class="tick" opacity="1" transform="translate(86.87931034482759,0)"><line stroke="currentColor" y2="6"></line><text fill="currentColor" y="9" dy="2em" style="text-anchor: middle;">1920</text></g><g class="tick" opacity="1" transform="translate(147.22413793103448,0)"><line stroke="currentColor" y2="6"></line><text fill="currentColor" y="9" dy="2em" style="text-anchor: middle;">1930</text></g><g class="tick" opacity="1" transform="translate(207.56896551724137,0)"><line stroke="currentColor" y2="6"></line><text fill="currentColor" y="9" dy="2em" style="text-anchor: middle;">1940</text></g><g class="tick" opacity="1" transform="translate(267.91379310344826,0)"><line stroke="currentColor" y2="6"></line><text fill="currentColor" y="9" dy="2em" style="text-anchor: middle;">1950</text></g><g class="tick" opacity="1" transform="translate(328.2586206896552,0)"><line stroke="currentColor" y2="6"></line><text fill="currentColor" y="9" dy="2em" style="text-anchor: middle;">1960</text></g><g class="tick" opacity="1" transform="translate(388.6034482758621,0)"><line stroke="currentColor" y2="6"></line><text fill="currentColor" y="9" dy="2em" style="text-anchor: middle;">1970</text></g><g class="tick" opacity="1" transform="translate(448.94827586206895,0)"><line stroke="currentColor" y2="6"></line><text fill="currentColor" y="9" dy="2em" style="text-anchor: middle;">1980</text></g><g class="tick" opacity="1" transform="translate(509.2931034482759,0)"><line stroke="currentColor" y2="6"></line><text fill="currentColor" y="9" dy="2em" style="text-anchor: middle;">1990</text></g><g class="tick" opacity="1" transform="translate(569.6379310344827,0)"><line stroke="currentColor" y2="6"></line><text fill="currentColor" y="9" dy="2em" style="text-anchor: middle;">2000</text></g><g class="tick" opacity="1" transform="translate(629.9827586206897,0)"><line stroke="currentColor" y2="6"></line><text fill="currentColor" y="9" dy="2em" style="text-anchor: middle;">2010</text></g><g class="tick" opacity="1" transform="translate(690.3275862068965,0)"><line stroke="currentColor" y2="6"></line><text fill="currentColor" y="9" dy="2em" style="text-anchor: middle;">2020</text></g></g><g class="y axis" fill="none" font-size="10" font-family="sans-serif" text-anchor="end"><path class="domain" stroke="currentColor" d="M-6,310.5H0.5V0.5H-6"></path><g class="tick" opacity="1" transform="translate(0,310.5)"><line stroke="currentColor" x2="-6"></line><text fill="currentColor" x="-9" dy="0.32em">0</text></g><g class="tick" opacity="1" transform="translate(0,263.530303030303)"><line stroke="currentColor" x2="-6"></line><text fill="currentColor" x="-9" dy="0.32em">50</text></g><g class="tick" opacity="1" transform="translate(0,216.56060606060606)"><line stroke="currentColor" x2="-6"></line><text fill="currentColor" x="-9" dy="0.32em">100</text></g><g class="tick" opacity="1" transform="translate(0,169.5909090909091)"><line stroke="currentColor" x2="-6"></line><text fill="currentColor" x="-9" dy="0.32em">150</text></g><g class="tick" opacity="1" transform="translate(0,122.62121212121212)"><line stroke="currentColor" x2="-6"></line><text fill="currentColor" x="-9" dy="0.32em">200</text></g><g class="tick" opacity="1" transform="translate(0,75.65151515151516)"><line stroke="currentColor" x2="-6"></line><text fill="currentColor" x="-9" dy="0.32em">250</text></g><g class="tick" opacity="1" transform="translate(0,28.681818181818187)"><line stroke="currentColor" x2="-6"></line><text fill="currentColor" x="-9" dy="0.32em">300</text></g><text y="6" style="text-anchor: middle;">Value</text></g><text class="y label" text-anchor="end" y="6" dy=".75em" transform="rotate(-90)">Installierte Leistung in MW pro Jahr</text><rect style="fill: rgb(0, 158, 227); stroke-width: 1px; stroke: lightgrey;" x="67.3448275862069" width="30" y="310" height="0"></rect><rect style="fill: rgb(0, 158, 227); stroke-width: 1px; stroke: lightgrey;" x="248.37931034482762" width="30" y="310" height="0"></rect><rect style="fill: rgb(0, 158, 227); stroke-width: 1px; stroke: lightgrey;" x="320.7931034482759" width="30" y="310" height="0"></rect><rect style="fill: rgb(0, 158, 227); stroke-width: 1px; stroke: lightgrey;" x="338.8965517241379" width="30" y="0" height="310"></rect><rect style="fill: rgb(0, 158, 227); stroke-width: 1px; stroke: lightgrey;" x="344.93103448275866" width="30" y="223.57575757575756" height="86.42424242424244"></rect><rect style="fill: rgb(0, 158, 227); stroke-width: 1px; stroke: lightgrey;" x="375.1034482758621" width="30" y="310" height="0"></rect><rect style="fill: rgb(0, 158, 227); stroke-width: 1px; stroke: lightgrey;" x="381.13793103448273" width="30" y="310" height="0"></rect><rect style="fill: rgb(0, 158, 227); stroke-width: 1px; stroke: lightgrey;" x="441.48275862068965" width="30" y="310" height="0"></rect><rect style="fill: rgb(0, 158, 227); stroke-width: 1px; stroke: lightgrey;" x="465.6206896551724" width="30" y="310" height="0"></rect><rect style="fill: rgb(0, 158, 227); stroke-width: 1px; stroke: lightgrey;" x="477.6896551724138" width="30" y="310" height="0"></rect><rect style="fill: rgb(255, 255, 255); stroke-width: 1px; stroke: lightgrey;" x="525.9655172413793" width="30" y="310" height="0"></rect><rect style="fill: rgb(255, 255, 255); stroke-width: 1px; stroke: lightgrey;" x="532" width="30" y="310" height="0"></rect><rect style="fill: rgb(255, 255, 255); stroke-width: 1px; stroke: lightgrey;" x="532" width="30" y="310" height="0"></rect><rect style="fill: rgb(255, 255, 255); stroke-width: 1px; stroke: lightgrey;" x="532" width="30" y="310" height="0"></rect><rect style="fill: rgb(255, 255, 255); stroke-width: 1px; stroke: lightgrey;" x="538.0344827586207" width="30" y="310" height="0"></rect><rect style="fill: rgb(255, 255, 255); stroke-width: 1px; stroke: lightgrey;" x="538.0344827586207" width="30" y="310" height="0"></rect><rect style="fill: rgb(255, 255, 255); stroke-width: 1px; stroke: lightgrey;" x="538.0344827586207" width="30" y="310" height="0"></rect><rect style="fill: rgb(255, 255, 255); stroke-width: 1px; stroke: lightgrey;" x="544.0689655172414" width="30" y="310" height="0"></rect><rect style="fill: rgb(255, 255, 255); stroke-width: 1px; stroke: lightgrey;" x="544.0689655172414" width="30" y="310" height="0"></rect><rect style="fill: rgb(255, 255, 255); stroke-width: 1px; stroke: lightgrey;" x="556.1379310344827" width="30" y="310" height="0"></rect><rect style="fill: rgb(255, 255, 255); stroke-width: 1px; stroke: lightgrey;" x="556.1379310344827" width="30" y="310" height="0"></rect><rect style="fill: rgb(255, 255, 255); stroke-width: 1px; stroke: lightgrey;" x="556.1379310344827" width="30" y="310" height="0"></rect><rect style="fill: rgb(255, 255, 255); stroke-width: 1px; stroke: lightgrey;" x="556.1379310344827" width="30" y="310" height="0"></rect><rect style="fill: rgb(255, 255, 255); stroke-width: 1px; stroke: lightgrey;" x="556.1379310344827" width="30" y="310" height="0"></rect><rect style="fill: rgb(255, 255, 255); stroke-width: 1px; stroke: lightgrey;" x="574.2413793103448" width="30" y="310" height="0"></rect><rect style="fill: rgb(255, 255, 255); stroke-width: 1px; stroke: lightgrey;" x="574.2413793103448" width="30" y="310" height="0"></rect><rect style="fill: rgb(255, 255, 255); stroke-width: 1px; stroke: lightgrey;" x="574.2413793103448" width="30" y="310" height="0"></rect><rect style="fill: rgb(255, 255, 255); stroke-width: 1px; stroke: lightgrey;" x="574.2413793103448" width="30" y="310" height="0"></rect><rect style="fill: rgb(255, 255, 255); stroke-width: 1px; stroke: lightgrey;" x="574.2413793103448" width="30" y="310" height="0"></rect><rect style="fill: rgb(255, 255, 255); stroke-width: 1px; stroke: lightgrey;" x="580.2758620689656" width="30" y="310" height="0"></rect><rect style="fill: rgb(255, 255, 255); stroke-width: 1px; stroke: lightgrey;" x="586.3103448275862" width="30" y="310" height="0"></rect><rect style="fill: rgb(255, 255, 255); stroke-width: 1px; stroke: lightgrey;" x="586.3103448275862" width="30" y="310" height="0"></rect><rect style="fill: rgb(255, 255, 255); stroke-width: 1px; stroke: lightgrey;" x="586.3103448275862" width="30" y="310" height="0"></rect><rect style="fill: rgb(255, 255, 255); stroke-width: 1px; stroke: lightgrey;" x="586.3103448275862" width="30" y="310" height="0"></rect><rect style="fill: rgb(255, 255, 255); stroke-width: 1px; stroke: lightgrey;" x="586.3103448275862" width="30" y="310" height="0"></rect><rect style="fill: rgb(0, 158, 227); stroke-width: 1px; stroke: lightgrey;" x="628.551724137931" width="30" y="309.530303030303" height="0.46969696969699726"></rect><rect style="fill: rgb(0, 158, 227); stroke-width: 1px; stroke: lightgrey;" x="628.551724137931" width="30" y="239.07575757575756" height="70.92424242424244"></rect><rect style="fill: rgb(0, 158, 227); stroke-width: 1px; stroke: lightgrey;" x="634.5862068965517" width="30" y="307.369696969697" height="2.6303030303030255"></rect><rect style="fill: rgb(0, 158, 227); stroke-width: 1px; stroke: lightgrey;" x="634.5862068965517" width="30" y="282.75757575757575" height="27.24242424242425"></rect><rect style="fill: rgb(0, 158, 227); stroke-width: 1px; stroke: lightgrey;" x="634.5862068965517" width="30" y="264.90909090909093" height="45.090909090909065"></rect><rect style="fill: rgb(0, 158, 227); stroke-width: 1px; stroke: lightgrey;" x="634.5862068965517" width="30" y="215.59090909090907" height="94.40909090909093"></rect><rect style="fill: rgb(0, 158, 227); stroke-width: 1px; stroke: lightgrey;" x="634.5862068965517" width="30" y="300.6248484848485" height="9.375151515151515"></rect><rect style="fill: rgb(0, 158, 227); stroke-width: 1px; stroke: lightgrey;" x="634.5862068965517" width="30" y="248" height="62"></rect><rect style="fill: rgb(0, 158, 227); stroke-width: 1px; stroke: lightgrey;" x="634.5862068965517" width="30" y="305.31242424242424" height="4.6875757575757575"></rect><rect style="fill: rgb(0, 158, 227); stroke-width: 1px; stroke: lightgrey;" x="634.5862068965517" width="30" y="301.73333333333335" height="8.266666666666652"></rect><rect style="fill: rgb(0, 158, 227); stroke-width: 1px; stroke: lightgrey;" x="634.5862068965517" width="30" y="309.32363636363635" height="0.6763636363636465"></rect><rect style="fill: rgb(0, 158, 227); stroke-width: 1px; stroke: lightgrey;" x="634.5862068965517" width="30" y="305.4909090909091" height="4.509090909090901"></rect><rect style="fill: rgb(0, 158, 227); stroke-width: 1px; stroke: lightgrey;" x="634.5862068965517" width="30" y="304.92727272727274" height="5.072727272727263"></rect><rect style="fill: rgb(0, 158, 227); stroke-width: 1px; stroke: lightgrey;" x="634.5862068965517" width="30" y="150.3030303030303" height="159.6969696969697"></rect><rect style="fill: rgb(0, 158, 227); stroke-width: 1px; stroke: lightgrey; opacity: 0.8;" x="634.5862068965517" width="30" y="303.04848484848486" height="6.951515151515139"></rect><rect style="fill: rgb(0, 158, 227); stroke-width: 1px; stroke: lightgrey;" x="634.5862068965517" width="30" y="307.369696969697" height="2.6303030303030255"></rect><rect style="fill: rgb(0, 158, 227); stroke-width: 1px; stroke: lightgrey;" x="640.6206896551724" width="30" y="307.93333333333334" height="2.066666666666663"></rect><rect style="fill: rgb(0, 158, 227); stroke-width: 1px; stroke: lightgrey; opacity: 0.8;" x="640.6206896551724" width="30" y="20.666666666666686" height="289.3333333333333"></rect><rect style="fill: rgb(0, 158, 227); stroke-width: 1px; stroke: lightgrey; opacity: 0.8;" x="640.6206896551724" width="30" y="305.54727272727274" height="4.452727272727259"></rect><rect style="fill: rgb(0, 158, 227); stroke-width: 1px; stroke: lightgrey;" x="640.6206896551724" width="30" y="310" height="0"></rect><rect style="fill: rgb(0, 158, 227); stroke-width: 1px; stroke: lightgrey;" x="646.6551724137931" width="30" y="294.2181818181818" height="15.78181818181821"></rect><rect style="fill: rgb(0, 158, 227); stroke-width: 1px; stroke: lightgrey;" x="646.6551724137931" width="30" y="114.60606060606062" height="195.39393939393938"></rect><rect style="fill: rgb(0, 158, 227); stroke-width: 1px; stroke: lightgrey; opacity: 0.8;" x="646.6551724137931" width="30" y="0" height="310"></rect><rect style="fill: rgb(0, 158, 227); stroke-width: 1px; stroke: lightgrey;" x="646.6551724137931" width="30" y="305.96060606060604" height="4.03939393939396"></rect><rect style="fill: rgb(0, 158, 227); stroke-width: 1px; stroke: lightgrey; opacity: 0.8;" x="646.6551724137931" width="30" y="297.130303030303" height="12.869696969696975"></rect><rect style="fill: rgb(0, 158, 227); stroke-width: 1px; stroke: lightgrey;" x="652.6896551724138" width="30" y="276.1818181818182" height="33.81818181818181"></rect><rect style="fill: rgb(0, 158, 227); stroke-width: 1px; stroke: lightgrey;" x="652.6896551724138" width="30" y="304.45757575757574" height="5.542424242424261"></rect><rect style="fill: rgb(0, 158, 227); stroke-width: 1px; stroke: lightgrey;" x="652.6896551724138" width="30" y="140.90909090909093" height="169.09090909090907"></rect><rect style="fill: rgb(0, 158, 227); stroke-width: 1px; stroke: lightgrey; opacity: 0.8;" x="652.6896551724138" width="30" y="178.48484848484847" height="131.51515151515153"></rect><rect style="fill: rgb(0, 158, 227); stroke-width: 1px; stroke: lightgrey; opacity: 0.8;" x="652.6896551724138" width="30" y="296.8484848484849" height="13.151515151515127"></rect><rect style="fill: rgb(0, 158, 227); stroke-width: 1px; stroke: lightgrey;" x="658.7241379310344" width="30" y="301.92121212121214" height="8.078787878787864"></rect><rect style="fill: rgb(0, 158, 227); stroke-width: 1px; stroke: lightgrey;" x="658.7241379310344" width="30" y="303.330303030303" height="6.669696969696986"></rect><rect style="fill: rgb(255, 255, 0); stroke-width: 1px; stroke: lightgrey;" x="658.7241379310344" width="30" y="310" height="0"></rect><rect style="fill: rgb(0, 158, 227); stroke-width: 1px; stroke: lightgrey; opacity: 0.8;" x="664.7586206896552" width="30" y="234.84848484848484" height="75.15151515151516"></rect></g></svg>
